<?xml version="1.0" encoding="ISO-8859-1" standalone="no"?>
<!DOCTYPE svg PUBLIC "-//W3C//DTD SVG 1.1//EN" "http://www.w3.org/Graphics/SVG/1.1/DTD/svg11.dtd">
<svg version="1.1" baseProfile="full" id="body" width="8in" height="8in" viewBox="0 0 1 1" preserveAspectRatio="none" xmlns="http://www.w3.org/2000/svg" xmlns:xlink="http://www.w3.org/1999/xlink" xmlns:ev="http://www.w3.org/2001/xml-events">
<title>SVG drawing</title>
<desc>This was produced by version 4.4 of GNU libplot, a free library for exporting 2-D vector graphics.</desc>
<rect id="background" x="0" y="0" width="1" height="1" stroke="none" fill="white"/>
<g id="content" transform="translate(0,1) scale(1,-1) scale(0.00024414) " xml:space="preserve" stroke="black" stroke-linecap="butt" stroke-linejoin="miter" stroke-miterlimit="10.433" stroke-dasharray="none" stroke-dashoffset="0" stroke-opacity="1" fill="none" fill-rule="evenodd" fill-opacity="1" font-style="normal" font-variant="normal" font-weight="normal" font-stretch="normal" font-size-adjust="none" letter-spacing="normal" word-spacing="normal" text-anchor="start">
<rect x="819.2" y="819.2" width="2457.6" height="2457.6" stroke-width="4.8188" />
<text transform="translate(783.33,662.21) scale(1,-1) scale(6.4512) " font-family="Helvetica,sans-serif" font-size="20px" stroke="none" fill="black" >0</text>
<line x1="819.2" y1="3276.8" x2="819.2" y2="3227.6" stroke-width="4.8188" />
<line x1="819.2" y1="819.2" x2="819.2" y2="868.35" stroke-width="4.8188" />
<text transform="translate(1192.9,662.21) scale(1,-1) scale(6.4512) " font-family="Helvetica,sans-serif" font-size="20px" stroke="none" fill="black" >2</text>
<line x1="1228.8" y1="3276.8" x2="1228.8" y2="3227.6" stroke-width="4.8188" />
<line x1="1228.8" y1="819.2" x2="1228.8" y2="868.35" stroke-width="4.8188" />
<text transform="translate(1602.5,662.21) scale(1,-1) scale(6.4512) " font-family="Helvetica,sans-serif" font-size="20px" stroke="none" fill="black" >4</text>
<line x1="1638.4" y1="3276.8" x2="1638.4" y2="3227.6" stroke-width="4.8188" />
<line x1="1638.4" y1="819.2" x2="1638.4" y2="868.35" stroke-width="4.8188" />
<text transform="translate(2012.1,662.21) scale(1,-1) scale(6.4512) " font-family="Helvetica,sans-serif" font-size="20px" stroke="none" fill="black" >6</text>
<line x1="2048" y1="3276.8" x2="2048" y2="3227.6" stroke-width="4.8188" />
<line x1="2048" y1="819.2" x2="2048" y2="868.35" stroke-width="4.8188" />
<text transform="translate(2421.7,662.21) scale(1,-1) scale(6.4512) " font-family="Helvetica,sans-serif" font-size="20px" stroke="none" fill="black" >8</text>
<line x1="2457.6" y1="3276.8" x2="2457.6" y2="3227.6" stroke-width="4.8188" />
<line x1="2457.6" y1="819.2" x2="2457.6" y2="868.35" stroke-width="4.8188" />
<text transform="translate(2795.5,662.21) scale(1,-1) scale(6.4512) " font-family="Helvetica,sans-serif" font-size="20px" stroke="none" fill="black" >10</text>
<line x1="2867.2" y1="3276.8" x2="2867.2" y2="3227.6" stroke-width="4.8188" />
<line x1="2867.2" y1="819.2" x2="2867.2" y2="868.35" stroke-width="4.8188" />
<text transform="translate(3205.1,662.21) scale(1,-1) scale(6.4512) " font-family="Helvetica,sans-serif" font-size="20px" stroke="none" fill="black" >12</text>
<line x1="3276.8" y1="3276.8" x2="3276.8" y2="3227.6" stroke-width="4.8188" />
<line x1="3276.8" y1="819.2" x2="3276.8" y2="868.35" stroke-width="4.8188" />
<line x1="819.2" y1="3276.8" x2="819.2" y2="3257.1" stroke-width="4.8188" />
<line x1="819.2" y1="819.2" x2="819.2" y2="838.86" stroke-width="4.8188" />
<line x1="1024" y1="3276.8" x2="1024" y2="3257.1" stroke-width="4.8188" />
<line x1="1024" y1="819.2" x2="1024" y2="838.86" stroke-width="4.8188" />
<line x1="1228.8" y1="3276.8" x2="1228.8" y2="3257.1" stroke-width="4.8188" />
<line x1="1228.8" y1="819.2" x2="1228.8" y2="838.86" stroke-width="4.8188" />
<line x1="1433.6" y1="3276.8" x2="1433.6" y2="3257.1" stroke-width="4.8188" />
<line x1="1433.6" y1="819.2" x2="1433.6" y2="838.86" stroke-width="4.8188" />
<line x1="1638.4" y1="3276.8" x2="1638.4" y2="3257.1" stroke-width="4.8188" />
<line x1="1638.4" y1="819.2" x2="1638.4" y2="838.86" stroke-width="4.8188" />
<line x1="1843.2" y1="3276.8" x2="1843.2" y2="3257.1" stroke-width="4.8188" />
<line x1="1843.2" y1="819.2" x2="1843.2" y2="838.86" stroke-width="4.8188" />
<line x1="2048" y1="3276.8" x2="2048" y2="3257.1" stroke-width="4.8188" />
<line x1="2048" y1="819.2" x2="2048" y2="838.86" stroke-width="4.8188" />
<line x1="2252.8" y1="3276.8" x2="2252.8" y2="3257.1" stroke-width="4.8188" />
<line x1="2252.8" y1="819.2" x2="2252.8" y2="838.86" stroke-width="4.8188" />
<line x1="2457.6" y1="3276.8" x2="2457.6" y2="3257.1" stroke-width="4.8188" />
<line x1="2457.6" y1="819.2" x2="2457.6" y2="838.86" stroke-width="4.8188" />
<line x1="2662.4" y1="3276.8" x2="2662.4" y2="3257.1" stroke-width="4.8188" />
<line x1="2662.4" y1="819.2" x2="2662.4" y2="838.86" stroke-width="4.8188" />
<line x1="2867.2" y1="3276.8" x2="2867.2" y2="3257.1" stroke-width="4.8188" />
<line x1="2867.2" y1="819.2" x2="2867.2" y2="838.86" stroke-width="4.8188" />
<line x1="3072" y1="3276.8" x2="3072" y2="3257.1" stroke-width="4.8188" />
<line x1="3072" y1="819.2" x2="3072" y2="838.86" stroke-width="4.8188" />
<line x1="3276.8" y1="3276.8" x2="3276.8" y2="3257.1" stroke-width="4.8188" />
<line x1="3276.8" y1="819.2" x2="3276.8" y2="838.86" stroke-width="4.8188" />
<text transform="translate(459.52,773.65) scale(1,-1) scale(6.4512) " font-family="Helvetica,sans-serif" font-size="20px" stroke="none" fill="black" >0.000</text>
<line x1="3276.8" y1="819.2" x2="3227.6" y2="819.2" stroke-width="4.8188" />
<line x1="819.2" y1="819.2" x2="868.35" y2="819.2" stroke-width="4.8188" />
<text transform="translate(459.52,1265.2) scale(1,-1) scale(6.4512) " font-family="Helvetica,sans-serif" font-size="20px" stroke="none" fill="black" >0.005</text>
<line x1="3276.8" y1="1310.7" x2="3227.6" y2="1310.7" stroke-width="4.8188" />
<line x1="819.2" y1="1310.7" x2="868.35" y2="1310.7" stroke-width="4.8188" />
<text transform="translate(459.52,1756.7) scale(1,-1) scale(6.4512) " font-family="Helvetica,sans-serif" font-size="20px" stroke="none" fill="black" >0.010</text>
<line x1="3276.8" y1="1802.2" x2="3227.6" y2="1802.2" stroke-width="4.8188" />
<line x1="819.2" y1="1802.2" x2="868.35" y2="1802.2" stroke-width="4.8188" />
<text transform="translate(459.52,2248.2) scale(1,-1) scale(6.4512) " font-family="Helvetica,sans-serif" font-size="20px" stroke="none" fill="black" >0.015</text>
<line x1="3276.8" y1="2293.8" x2="3227.6" y2="2293.8" stroke-width="4.8188" />
<line x1="819.2" y1="2293.8" x2="868.35" y2="2293.8" stroke-width="4.8188" />
<text transform="translate(459.52,2739.7) scale(1,-1) scale(6.4512) " font-family="Helvetica,sans-serif" font-size="20px" stroke="none" fill="black" >0.020</text>
<line x1="3276.8" y1="2785.3" x2="3227.6" y2="2785.3" stroke-width="4.8188" />
<line x1="819.2" y1="2785.3" x2="868.35" y2="2785.3" stroke-width="4.8188" />
<text transform="translate(459.52,3231.3) scale(1,-1) scale(6.4512) " font-family="Helvetica,sans-serif" font-size="20px" stroke="none" fill="black" >0.025</text>
<line x1="3276.8" y1="3276.8" x2="3227.6" y2="3276.8" stroke-width="4.8188" />
<line x1="819.2" y1="3276.8" x2="868.35" y2="3276.8" stroke-width="4.8188" />
<line x1="3276.8" y1="819.2" x2="3257.1" y2="819.2" stroke-width="4.8188" />
<line x1="819.2" y1="819.2" x2="838.86" y2="819.2" stroke-width="4.8188" />
<line x1="3276.8" y1="917.5" x2="3257.1" y2="917.5" stroke-width="4.8188" />
<line x1="819.2" y1="917.5" x2="838.86" y2="917.5" stroke-width="4.8188" />
<line x1="3276.8" y1="1015.8" x2="3257.1" y2="1015.8" stroke-width="4.8188" />
<line x1="819.2" y1="1015.8" x2="838.86" y2="1015.8" stroke-width="4.8188" />
<line x1="3276.8" y1="1114.1" x2="3257.1" y2="1114.1" stroke-width="4.8188" />
<line x1="819.2" y1="1114.1" x2="838.86" y2="1114.1" stroke-width="4.8188" />
<line x1="3276.8" y1="1212.4" x2="3257.1" y2="1212.4" stroke-width="4.8188" />
<line x1="819.2" y1="1212.4" x2="838.86" y2="1212.4" stroke-width="4.8188" />
<line x1="3276.8" y1="1310.7" x2="3257.1" y2="1310.7" stroke-width="4.8188" />
<line x1="819.2" y1="1310.7" x2="838.86" y2="1310.7" stroke-width="4.8188" />
<line x1="3276.8" y1="1409" x2="3257.1" y2="1409" stroke-width="4.8188" />
<line x1="819.2" y1="1409" x2="838.86" y2="1409" stroke-width="4.8188" />
<line x1="3276.8" y1="1507.3" x2="3257.1" y2="1507.3" stroke-width="4.8188" />
<line x1="819.2" y1="1507.3" x2="838.86" y2="1507.3" stroke-width="4.8188" />
<line x1="3276.8" y1="1605.6" x2="3257.1" y2="1605.6" stroke-width="4.8188" />
<line x1="819.2" y1="1605.6" x2="838.86" y2="1605.6" stroke-width="4.8188" />
<line x1="3276.8" y1="1703.9" x2="3257.1" y2="1703.9" stroke-width="4.8188" />
<line x1="819.2" y1="1703.9" x2="838.86" y2="1703.9" stroke-width="4.8188" />
<line x1="3276.8" y1="1802.2" x2="3257.1" y2="1802.2" stroke-width="4.8188" />
<line x1="819.2" y1="1802.2" x2="838.86" y2="1802.2" stroke-width="4.8188" />
<line x1="3276.8" y1="1900.5" x2="3257.1" y2="1900.5" stroke-width="4.8188" />
<line x1="819.2" y1="1900.5" x2="838.86" y2="1900.5" stroke-width="4.8188" />
<line x1="3276.8" y1="1998.8" x2="3257.1" y2="1998.8" stroke-width="4.8188" />
<line x1="819.2" y1="1998.8" x2="838.86" y2="1998.8" stroke-width="4.8188" />
<line x1="3276.8" y1="2097.2" x2="3257.1" y2="2097.2" stroke-width="4.8188" />
<line x1="819.2" y1="2097.2" x2="838.86" y2="2097.2" stroke-width="4.8188" />
<line x1="3276.8" y1="2195.5" x2="3257.1" y2="2195.5" stroke-width="4.8188" />
<line x1="819.2" y1="2195.5" x2="838.86" y2="2195.5" stroke-width="4.8188" />
<line x1="3276.8" y1="2293.8" x2="3257.1" y2="2293.8" stroke-width="4.8188" />
<line x1="819.2" y1="2293.8" x2="838.86" y2="2293.8" stroke-width="4.8188" />
<line x1="3276.8" y1="2392.1" x2="3257.1" y2="2392.1" stroke-width="4.8188" />
<line x1="819.2" y1="2392.1" x2="838.86" y2="2392.1" stroke-width="4.8188" />
<line x1="3276.8" y1="2490.4" x2="3257.1" y2="2490.4" stroke-width="4.8188" />
<line x1="819.2" y1="2490.4" x2="838.86" y2="2490.4" stroke-width="4.8188" />
<line x1="3276.8" y1="2588.7" x2="3257.1" y2="2588.7" stroke-width="4.8188" />
<line x1="819.2" y1="2588.7" x2="838.86" y2="2588.7" stroke-width="4.8188" />
<line x1="3276.8" y1="2687" x2="3257.1" y2="2687" stroke-width="4.8188" />
<line x1="819.2" y1="2687" x2="838.86" y2="2687" stroke-width="4.8188" />
<line x1="3276.8" y1="2785.3" x2="3257.1" y2="2785.3" stroke-width="4.8188" />
<line x1="819.2" y1="2785.3" x2="838.86" y2="2785.3" stroke-width="4.8188" />
<line x1="3276.8" y1="2883.6" x2="3257.1" y2="2883.6" stroke-width="4.8188" />
<line x1="819.2" y1="2883.6" x2="838.86" y2="2883.6" stroke-width="4.8188" />
<line x1="3276.8" y1="2981.9" x2="3257.1" y2="2981.9" stroke-width="4.8188" />
<line x1="819.2" y1="2981.9" x2="838.86" y2="2981.9" stroke-width="4.8188" />
<line x1="3276.8" y1="3080.2" x2="3257.1" y2="3080.2" stroke-width="4.8188" />
<line x1="819.2" y1="3080.2" x2="838.86" y2="3080.2" stroke-width="4.8188" />
<line x1="3276.8" y1="3178.5" x2="3257.1" y2="3178.5" stroke-width="4.8188" />
<line x1="819.2" y1="3178.5" x2="838.86" y2="3178.5" stroke-width="4.8188" />
<line x1="3276.8" y1="3276.8" x2="3257.1" y2="3276.8" stroke-width="4.8188" />
<line x1="819.2" y1="3276.8" x2="838.86" y2="3276.8" stroke-width="4.8188" />
<text transform="translate(1682.3,501.24) scale(1,-1) scale(6.4512) " font-family="Helvetica,sans-serif" font-size="20px" stroke="none" fill="black" >Energy (kev)</text>
<text transform="matrix(0 6.4512 6.4512 0 346.58 1754.1) " font-family="Helvetica,sans-serif" font-size="20px" stroke="none" fill="black" >Flux (arb.)</text>
<polyline points="839.68,819.2 847.83,819.2 855.98,819.2 864.13,819.2 872.28,819.2 880.43,819.2 888.59,819.49 896.74,820.06 904.89,820.6 913.04,821.2 921.19,821.97 929.34,822.69 937.49,823.58 945.64,824.63 953.79,825.75 961.94,826.98 970.09,828.23 978.25,829.82 986.4,831.36 994.55,833.12 1002.7,835.01 1010.8,836.94 1019,839.2 1027.2,841.46 1035.3,844.07 1043.5,846.56 1051.6,849.36 1059.8,852.55 1067.9,855.89 1076.1,859.48 1084.2,863.47 1092.4,867.86 1100.5,873.47 1108.7,877.51 1116.8,881.35 1125,885.3 1133.1,889.17 1141.3,893.76 1149.4,898.09 1157.6,902.42 1165.7,906.79 1173.9,911.31 1182,917.12 1190.2,921.7 1198.3,926.42 1206.5,931.41 1214.6,937.28 1222.8,942.29 1230.9,947.89 1239.1,953.31 1247.2,960.38 1255.4,966.04 1263.5,972.39 1271.7,977.94 1279.8,984.12 1288,991.31 1296.1,997.03 1304.3,1004.1 1312.4,1011.7 1320.6,1017.7 1328.7,1024.8 1336.9,1032.5 1345,1039.7 1353.2,1048 1361.3,1053.4 1369.5,1062 1377.6,1071 1385.8,1078.9 1393.9,1086.4 1402.1,1096.3 1410.2,1102.8 1418.4,1110.7 1426.5,1120.7 1434.7,1128.9 1442.8,1138.4 1451,1147.2 1459.1,1156.8 1467.3,1166.3 1475.5,1175.5 1483.6,1185 1491.8,1194.2 1499.9,1204.3 1508.1,1215.6 1516.2,1225.1 1524.4,1235.7 1532.5,1245.3 1540.7,1255.9 1548.8,1268.1 1557,1277.9 1565.1,1288.8 1573.3,1299.8 1581.4,1310.1 1589.6,1324.7 1597.7,1333.9 1605.9,1348.8 1614,1358.6 1622.2,1366.4 1630.3,1380.5 1638.5,1392.4 1646.6,1408.8 1654.8,1417.4 1662.9,1432.5 1671.1,1443.3 1679.2,1455.4 1687.4,1469.5 1695.5,1485 1703.7,1496.7 1711.8,1506.5 1720,1521.8 1728.1,1536.2 1736.3,1552.1 1744.4,1567.1 1752.6,1585.1 1760.7,1598.6 1768.9,1610.3 1777,1623.5 1785.2,1644.5 1793.3,1655.6 1801.5,1672.5 1809.6,1688.9 1817.8,1703.8 1825.9,1714 1834.1,1738.9 1842.2,1753.8 1850.4,1754.3 1858.5,1790 1866.7,1807.8 1874.8,1819.7 1883,1831.1 1891.1,1854.6 1899.3,1874.6 1907.4,1877.3 1915.6,1899.2 1923.8,1935.2 1931.9,1929.3 1940.1,1956.3 1948.2,1981.7 1956.4,1992.5 1964.5,2023.3 1972.7,2044.2 1980.8,2024.5 1989,1998.1 1997.1,1990.7 2005.3,1989.3 2013.4,1991.8 2021.6,1995 2029.7,2001.3 2037.9,2007.3 2046,2011 2054.2,2015.9 2062.3,2029.8 2070.5,2043.8 2078.6,2043.4 2086.8,2062.4 2094.9,2064.7 2103.1,2086.9 2111.2,2086.3 2119.4,2110.1 2127.5,2120.9 2135.7,2137.2 2143.8,2161.7 2152,2172.1 2160.1,2189 2168.3,2218.8 2176.4,2256.8 2184.6,2279.2 2192.7,2333.6 2200.9,2391.8 2209,2512.7 2217.2,2734.2 2225.3,2786.2 2233.5,2843.4 2241.6,1194.4 2249.8,819.2 2257.9,819.2 2266.1,819.2 2274.2,819.2 2282.4,819.2 2290.5,819.2 2298.7,819.2 2306.8,819.2 2315,819.2 2323.1,819.2 2331.3,819.2 2339.4,819.2 2347.6,819.2 2355.7,819.2 2363.9,819.2 2372,819.2 2380.2,819.2 2388.4,819.2 2396.5,819.2 2404.7,819.2 2412.8,819.2 2421,819.2 2429.1,819.2 2437.3,819.2 2445.4,819.2 2453.6,819.2 2461.7,819.2 2469.9,819.2 2478,819.2 2486.2,819.2 2494.3,819.2 2502.5,819.2 2510.6,819.2 2518.8,819.2 2526.9,819.2 2535.1,819.2 2543.2,819.2 2551.4,819.2 2559.5,819.2 2567.7,819.2 2575.8,819.2 2584,819.2 2592.1,819.2 2600.3,819.2 2608.4,819.2 2616.6,819.2 2624.7,819.2 2632.9,819.2 2641,819.2 2649.2,819.2 2657.3,819.2 2665.5,819.2 2673.6,819.2 2681.8,819.2 2689.9,819.2 2698.1,819.2 2706.2,819.2 2714.4,819.2 2722.5,819.2 2730.7,819.2 2738.8,819.2 2747,819.2 2755.1,819.2 2763.3,819.2 2771.4,819.2 2779.6,819.2 2787.7,819.2 2795.9,819.2 2804,819.2 2812.2,819.2 2820.3,819.2 2828.5,819.2 2836.7,819.2 2844.8,819.2 2853,819.2 2861.1,819.2 2869.3,819.2 2877.4,819.2 2885.6,819.2 2893.7,819.2 2901.9,819.2 2910,819.2 2918.2,819.2 2926.3,819.2 2934.5,819.2 2942.6,819.2 2950.8,819.2 2958.9,819.2 2967.1,819.2 2975.2,819.2 2983.4,819.2 2991.5,819.2 2999.7,819.2 3007.8,819.2 3016,819.2 3024.1,819.2 3032.3,819.2 3040.4,819.2 3048.6,819.2 3056.7,819.2 3064.9,819.2 3073,819.2 3081.2,819.2 3089.3,819.2 3097.5,819.2 3105.6,819.2 3113.8,819.2 3121.9,819.2 3130.1,819.2 3138.2,819.2 3146.4,819.2 3154.5,819.2 3162.7,819.2 3170.8,819.2 3179,819.2 3187.1,819.2 3195.3,819.2 3203.4,819.2 3211.6,819.2 3219.7,819.2 3227.9,819.2 3236,819.2 3244.2,819.2 3252.3,819.2 3260.5,819.2 3268.6,819.2 " stroke="red" stroke-width="4.8188" />
</g>
</svg>
