<?xml version="1.0" encoding="ISO-8859-1" standalone="no"?>
<!DOCTYPE svg PUBLIC "-//W3C//DTD SVG 1.1//EN" "http://www.w3.org/Graphics/SVG/1.1/DTD/svg11.dtd">
<svg version="1.1" baseProfile="full" id="body" width="8in" height="8in" viewBox="0 0 1 1" preserveAspectRatio="none" xmlns="http://www.w3.org/2000/svg" xmlns:xlink="http://www.w3.org/1999/xlink" xmlns:ev="http://www.w3.org/2001/xml-events">
<title>SVG drawing</title>
<desc>This was produced by version 4.4 of GNU libplot, a free library for exporting 2-D vector graphics.</desc>
<rect id="background" x="0" y="0" width="1" height="1" stroke="none" fill="white"/>
<g id="content" transform="translate(0,1) scale(1,-1) scale(0.00024414) " xml:space="preserve" stroke="black" stroke-linecap="butt" stroke-linejoin="miter" stroke-miterlimit="10.433" stroke-dasharray="none" stroke-dashoffset="0" stroke-opacity="1" fill="none" fill-rule="evenodd" fill-opacity="1" font-style="normal" font-variant="normal" font-weight="normal" font-stretch="normal" font-size-adjust="none" letter-spacing="normal" word-spacing="normal" text-anchor="start">
<rect x="819.2" y="819.2" width="2457.6" height="2457.6" stroke-width="4.8188" />
<text transform="translate(783.33,662.21) scale(1,-1) scale(6.4512) " font-family="Helvetica,sans-serif" font-size="20px" stroke="none" fill="black" >0</text>
<line x1="819.2" y1="3276.8" x2="819.2" y2="3227.6" stroke-width="4.8188" />
<line x1="819.2" y1="819.2" x2="819.2" y2="868.35" stroke-width="4.8188" />
<text transform="translate(1192.9,662.21) scale(1,-1) scale(6.4512) " font-family="Helvetica,sans-serif" font-size="20px" stroke="none" fill="black" >2</text>
<line x1="1228.8" y1="3276.8" x2="1228.8" y2="3227.6" stroke-width="4.8188" />
<line x1="1228.8" y1="819.2" x2="1228.8" y2="868.35" stroke-width="4.8188" />
<text transform="translate(1602.5,662.21) scale(1,-1) scale(6.4512) " font-family="Helvetica,sans-serif" font-size="20px" stroke="none" fill="black" >4</text>
<line x1="1638.4" y1="3276.8" x2="1638.4" y2="3227.6" stroke-width="4.8188" />
<line x1="1638.4" y1="819.2" x2="1638.4" y2="868.35" stroke-width="4.8188" />
<text transform="translate(2012.1,662.21) scale(1,-1) scale(6.4512) " font-family="Helvetica,sans-serif" font-size="20px" stroke="none" fill="black" >6</text>
<line x1="2048" y1="3276.8" x2="2048" y2="3227.6" stroke-width="4.8188" />
<line x1="2048" y1="819.2" x2="2048" y2="868.35" stroke-width="4.8188" />
<text transform="translate(2421.7,662.21) scale(1,-1) scale(6.4512) " font-family="Helvetica,sans-serif" font-size="20px" stroke="none" fill="black" >8</text>
<line x1="2457.6" y1="3276.8" x2="2457.6" y2="3227.6" stroke-width="4.8188" />
<line x1="2457.6" y1="819.2" x2="2457.6" y2="868.35" stroke-width="4.8188" />
<text transform="translate(2795.5,662.21) scale(1,-1) scale(6.4512) " font-family="Helvetica,sans-serif" font-size="20px" stroke="none" fill="black" >10</text>
<line x1="2867.2" y1="3276.8" x2="2867.2" y2="3227.6" stroke-width="4.8188" />
<line x1="2867.2" y1="819.2" x2="2867.2" y2="868.35" stroke-width="4.8188" />
<text transform="translate(3205.1,662.21) scale(1,-1) scale(6.4512) " font-family="Helvetica,sans-serif" font-size="20px" stroke="none" fill="black" >12</text>
<line x1="3276.8" y1="3276.8" x2="3276.8" y2="3227.6" stroke-width="4.8188" />
<line x1="3276.8" y1="819.2" x2="3276.8" y2="868.35" stroke-width="4.8188" />
<line x1="819.2" y1="3276.8" x2="819.2" y2="3257.1" stroke-width="4.8188" />
<line x1="819.2" y1="819.2" x2="819.2" y2="838.86" stroke-width="4.8188" />
<line x1="1024" y1="3276.8" x2="1024" y2="3257.1" stroke-width="4.8188" />
<line x1="1024" y1="819.2" x2="1024" y2="838.86" stroke-width="4.8188" />
<line x1="1228.8" y1="3276.8" x2="1228.8" y2="3257.1" stroke-width="4.8188" />
<line x1="1228.8" y1="819.2" x2="1228.8" y2="838.86" stroke-width="4.8188" />
<line x1="1433.6" y1="3276.8" x2="1433.6" y2="3257.1" stroke-width="4.8188" />
<line x1="1433.6" y1="819.2" x2="1433.6" y2="838.86" stroke-width="4.8188" />
<line x1="1638.4" y1="3276.8" x2="1638.4" y2="3257.1" stroke-width="4.8188" />
<line x1="1638.4" y1="819.2" x2="1638.4" y2="838.86" stroke-width="4.8188" />
<line x1="1843.2" y1="3276.8" x2="1843.2" y2="3257.1" stroke-width="4.8188" />
<line x1="1843.2" y1="819.2" x2="1843.2" y2="838.86" stroke-width="4.8188" />
<line x1="2048" y1="3276.8" x2="2048" y2="3257.1" stroke-width="4.8188" />
<line x1="2048" y1="819.2" x2="2048" y2="838.86" stroke-width="4.8188" />
<line x1="2252.8" y1="3276.8" x2="2252.8" y2="3257.1" stroke-width="4.8188" />
<line x1="2252.8" y1="819.2" x2="2252.8" y2="838.86" stroke-width="4.8188" />
<line x1="2457.6" y1="3276.8" x2="2457.6" y2="3257.1" stroke-width="4.8188" />
<line x1="2457.6" y1="819.2" x2="2457.6" y2="838.86" stroke-width="4.8188" />
<line x1="2662.4" y1="3276.8" x2="2662.4" y2="3257.1" stroke-width="4.8188" />
<line x1="2662.4" y1="819.2" x2="2662.4" y2="838.86" stroke-width="4.8188" />
<line x1="2867.2" y1="3276.8" x2="2867.2" y2="3257.1" stroke-width="4.8188" />
<line x1="2867.2" y1="819.2" x2="2867.2" y2="838.86" stroke-width="4.8188" />
<line x1="3072" y1="3276.8" x2="3072" y2="3257.1" stroke-width="4.8188" />
<line x1="3072" y1="819.2" x2="3072" y2="838.86" stroke-width="4.8188" />
<line x1="3276.8" y1="3276.8" x2="3276.8" y2="3257.1" stroke-width="4.8188" />
<line x1="3276.8" y1="819.2" x2="3276.8" y2="838.86" stroke-width="4.8188" />
<text transform="translate(459.52,773.65) scale(1,-1) scale(6.4512) " font-family="Helvetica,sans-serif" font-size="20px" stroke="none" fill="black" >0.000</text>
<line x1="3276.8" y1="819.2" x2="3227.6" y2="819.2" stroke-width="4.8188" />
<line x1="819.2" y1="819.2" x2="868.35" y2="819.2" stroke-width="4.8188" />
<text transform="translate(459.52,1080.9) scale(1,-1) scale(6.4512) " font-family="Helvetica,sans-serif" font-size="20px" stroke="none" fill="black" >0.002</text>
<line x1="3276.8" y1="1126.4" x2="3227.6" y2="1126.4" stroke-width="4.8188" />
<line x1="819.2" y1="1126.4" x2="868.35" y2="1126.4" stroke-width="4.8188" />
<text transform="translate(459.52,1388.1) scale(1,-1) scale(6.4512) " font-family="Helvetica,sans-serif" font-size="20px" stroke="none" fill="black" >0.004</text>
<line x1="3276.8" y1="1433.6" x2="3227.6" y2="1433.6" stroke-width="4.8188" />
<line x1="819.2" y1="1433.6" x2="868.35" y2="1433.6" stroke-width="4.8188" />
<text transform="translate(459.52,1695.3) scale(1,-1) scale(6.4512) " font-family="Helvetica,sans-serif" font-size="20px" stroke="none" fill="black" >0.006</text>
<line x1="3276.8" y1="1740.8" x2="3227.6" y2="1740.8" stroke-width="4.8188" />
<line x1="819.2" y1="1740.8" x2="868.35" y2="1740.8" stroke-width="4.8188" />
<text transform="translate(459.52,2002.5) scale(1,-1) scale(6.4512) " font-family="Helvetica,sans-serif" font-size="20px" stroke="none" fill="black" >0.008</text>
<line x1="3276.8" y1="2048" x2="3227.6" y2="2048" stroke-width="4.8188" />
<line x1="819.2" y1="2048" x2="868.35" y2="2048" stroke-width="4.8188" />
<text transform="translate(459.52,2309.7) scale(1,-1) scale(6.4512) " font-family="Helvetica,sans-serif" font-size="20px" stroke="none" fill="black" >0.010</text>
<line x1="3276.8" y1="2355.2" x2="3227.6" y2="2355.2" stroke-width="4.8188" />
<line x1="819.2" y1="2355.2" x2="868.35" y2="2355.2" stroke-width="4.8188" />
<text transform="translate(459.52,2616.9) scale(1,-1) scale(6.4512) " font-family="Helvetica,sans-serif" font-size="20px" stroke="none" fill="black" >0.012</text>
<line x1="3276.8" y1="2662.4" x2="3227.6" y2="2662.4" stroke-width="4.8188" />
<line x1="819.2" y1="2662.4" x2="868.35" y2="2662.4" stroke-width="4.8188" />
<text transform="translate(459.52,2924.1) scale(1,-1) scale(6.4512) " font-family="Helvetica,sans-serif" font-size="20px" stroke="none" fill="black" >0.014</text>
<line x1="3276.8" y1="2969.6" x2="3227.6" y2="2969.6" stroke-width="4.8188" />
<line x1="819.2" y1="2969.6" x2="868.35" y2="2969.6" stroke-width="4.8188" />
<text transform="translate(459.52,3231.3) scale(1,-1) scale(6.4512) " font-family="Helvetica,sans-serif" font-size="20px" stroke="none" fill="black" >0.016</text>
<line x1="3276.8" y1="3276.8" x2="3227.6" y2="3276.8" stroke-width="4.8188" />
<line x1="819.2" y1="3276.8" x2="868.35" y2="3276.8" stroke-width="4.8188" />
<line x1="3276.8" y1="819.2" x2="3257.1" y2="819.2" stroke-width="4.8188" />
<line x1="819.2" y1="819.2" x2="838.86" y2="819.2" stroke-width="4.8188" />
<line x1="3276.8" y1="972.8" x2="3257.1" y2="972.8" stroke-width="4.8188" />
<line x1="819.2" y1="972.8" x2="838.86" y2="972.8" stroke-width="4.8188" />
<line x1="3276.8" y1="1126.4" x2="3257.1" y2="1126.4" stroke-width="4.8188" />
<line x1="819.2" y1="1126.4" x2="838.86" y2="1126.4" stroke-width="4.8188" />
<line x1="3276.8" y1="1280" x2="3257.1" y2="1280" stroke-width="4.8188" />
<line x1="819.2" y1="1280" x2="838.86" y2="1280" stroke-width="4.8188" />
<line x1="3276.8" y1="1433.6" x2="3257.1" y2="1433.6" stroke-width="4.8188" />
<line x1="819.2" y1="1433.6" x2="838.86" y2="1433.6" stroke-width="4.8188" />
<line x1="3276.8" y1="1587.2" x2="3257.1" y2="1587.2" stroke-width="4.8188" />
<line x1="819.2" y1="1587.2" x2="838.86" y2="1587.2" stroke-width="4.8188" />
<line x1="3276.8" y1="1740.8" x2="3257.1" y2="1740.8" stroke-width="4.8188" />
<line x1="819.2" y1="1740.8" x2="838.86" y2="1740.8" stroke-width="4.8188" />
<line x1="3276.8" y1="1894.4" x2="3257.1" y2="1894.4" stroke-width="4.8188" />
<line x1="819.2" y1="1894.4" x2="838.86" y2="1894.4" stroke-width="4.8188" />
<line x1="3276.8" y1="2048" x2="3257.1" y2="2048" stroke-width="4.8188" />
<line x1="819.2" y1="2048" x2="838.86" y2="2048" stroke-width="4.8188" />
<line x1="3276.8" y1="2201.6" x2="3257.1" y2="2201.6" stroke-width="4.8188" />
<line x1="819.2" y1="2201.6" x2="838.86" y2="2201.6" stroke-width="4.8188" />
<line x1="3276.8" y1="2355.2" x2="3257.1" y2="2355.2" stroke-width="4.8188" />
<line x1="819.2" y1="2355.2" x2="838.86" y2="2355.2" stroke-width="4.8188" />
<line x1="3276.8" y1="2508.8" x2="3257.1" y2="2508.8" stroke-width="4.8188" />
<line x1="819.2" y1="2508.8" x2="838.86" y2="2508.8" stroke-width="4.8188" />
<line x1="3276.8" y1="2662.4" x2="3257.1" y2="2662.4" stroke-width="4.8188" />
<line x1="819.2" y1="2662.4" x2="838.86" y2="2662.4" stroke-width="4.8188" />
<line x1="3276.8" y1="2816" x2="3257.1" y2="2816" stroke-width="4.8188" />
<line x1="819.2" y1="2816" x2="838.86" y2="2816" stroke-width="4.8188" />
<line x1="3276.8" y1="2969.6" x2="3257.1" y2="2969.6" stroke-width="4.8188" />
<line x1="819.2" y1="2969.6" x2="838.86" y2="2969.6" stroke-width="4.8188" />
<line x1="3276.8" y1="3123.2" x2="3257.1" y2="3123.2" stroke-width="4.8188" />
<line x1="819.2" y1="3123.2" x2="838.86" y2="3123.2" stroke-width="4.8188" />
<line x1="3276.8" y1="3276.8" x2="3257.1" y2="3276.8" stroke-width="4.8188" />
<line x1="819.2" y1="3276.8" x2="838.86" y2="3276.8" stroke-width="4.8188" />
<text transform="translate(1682.3,501.24) scale(1,-1) scale(6.4512) " font-family="Helvetica,sans-serif" font-size="20px" stroke="none" fill="black" >Energy (kev)</text>
<text transform="matrix(0 6.4512 6.4512 0 346.58 1754.1) " font-family="Helvetica,sans-serif" font-size="20px" stroke="none" fill="black" >Flux (arb.)</text>
<polyline points="839.68,819.2 847.83,819.2 855.98,819.2 864.13,819.2 872.28,819.2 880.43,819.21 888.59,819.6 896.74,820.04 904.89,820.59 913.04,821.41 921.19,822.29 929.34,823.28 937.49,824.44 945.64,825.67 953.79,827.06 961.94,828.62 970.09,830.31 978.25,832.19 986.4,834.23 994.55,836.42 1002.7,838.83 1010.8,841.4 1019,844.14 1027.2,847.11 1035.3,850.34 1043.5,853.75 1051.6,857.45 1059.8,861.43 1067.9,865.75 1076.1,870.59 1084.2,876.4 1092.4,881.18 1100.5,885.72 1108.7,890.53 1116.8,895.45 1125,900.83 1133.1,905.93 1141.3,911.77 1149.4,917.51 1157.6,923.63 1165.7,930.23 1173.9,937.36 1182,943.73 1190.2,950.08 1198.3,956.76 1206.5,963.27 1214.6,970.28 1222.8,977.49 1230.9,984.61 1239.1,991.76 1247.2,999.51 1255.4,1007.2 1263.5,1015.3 1271.7,1023.4 1279.8,1031.4 1288,1039.9 1296.1,1048.5 1304.3,1057.2 1312.4,1066.4 1320.6,1074.9 1328.7,1084.3 1336.9,1093.6 1345,1103.6 1353.2,1113.4 1361.3,1122.7 1369.5,1133.4 1377.6,1142.9 1385.8,1153.5 1393.9,1164.2 1402.1,1174.9 1410.2,1186 1418.4,1196.8 1426.5,1208.4 1434.7,1219.5 1442.8,1230.9 1451,1243.2 1459.1,1254.7 1467.3,1267.2 1475.5,1279.1 1483.6,1291.4 1491.8,1304.5 1499.9,1316.6 1508.1,1330.2 1516.2,1343.2 1524.4,1356.2 1532.5,1370.4 1540.7,1383.4 1548.8,1397.5 1557,1412 1565.1,1424.7 1573.3,1440.4 1581.4,1454.4 1589.6,1469.5 1597.7,1484.4 1605.9,1500.1 1614,1514.3 1622.2,1530.5 1630.3,1546.8 1638.5,1561.2 1646.6,1578.1 1654.8,1594.7 1662.9,1611.3 1671.1,1625.8 1679.2,1645.2 1687.4,1661.6 1695.5,1677.4 1703.7,1695.5 1711.8,1713.5 1720,1730.3 1728.1,1748.2 1736.3,1769.8 1744.4,1787.5 1752.6,1803.2 1760.7,1824.6 1768.9,1844.2 1777,1861.8 1785.2,1883.9 1793.3,1902.6 1801.5,1922.3 1809.6,1941.3 1817.8,1964 1825.9,1982.1 1834.1,2003.1 1842.2,2025.5 1850.4,2046.4 1858.5,2068.6 1866.7,2089.9 1874.8,2110.9 1883,2135.7 1891.1,2159.7 1899.3,2177.6 1907.4,2203.9 1915.6,2227.9 1923.8,2235.3 1931.9,2221.4 1940.1,2217.5 1948.2,2223 1956.4,2230.7 1964.5,2240.9 1972.7,2251.7 1980.8,2261.2 1989,2275.4 1997.1,2287.7 2005.3,2302.5 2013.4,2316.5 2021.6,2334 2029.7,2348.5 2037.9,2370.3 2046,2384.4 2054.2,2402.5 2062.3,2421.8 2070.5,2444.3 2078.6,2467.2 2086.8,2488.7 2094.9,2512.2 2103.1,2544.2 2111.2,2574.1 2119.4,2611.5 2127.5,2659.3 2135.7,2724.4 2143.8,2855 2152,2987.2 2160.1,2989.4 2168.3,2479.2 2176.4,1464.5 2184.6,1473.9 2192.7,1482.2 2200.9,1490.7 2209,1499.5 2217.2,1507.3 2225.3,1518.9 2233.5,1527.9 2241.6,1537.6 2249.8,1545.4 2257.9,1553.6 2266.1,1566.4 2274.2,1574.9 2282.4,1584 2290.5,1567.6 2298.7,1559.1 2306.8,1553.6 2315,1553.3 2323.1,1554.1 2331.3,1553.6 2339.4,1556 2347.6,1558 2355.7,1559.4 2363.9,1562 2372,1566.9 2380.2,1569.3 2388.4,1572.6 2396.5,1578 2404.7,1581.5 2412.8,1586.5 2421,1592.7 2429.1,1595.8 2437.3,1604.4 2445.4,1607.3 2453.6,1614 2461.7,1620.2 2469.9,1626.5 2478,1636.2 2486.2,1641 2494.3,1652.3 2502.5,1659.3 2510.6,1670.3 2518.8,1680 2526.9,1691.4 2535.1,1706.4 2543.2,1722.5 2551.4,1741.8 2559.5,1769.1 2567.7,1802 2575.8,1860.5 2584,1969.8 2592.1,1987.9 2600.3,1980.9 2608.4,1888.6 2616.6,871.54 2624.7,819.2 2632.9,819.2 2641,819.2 2649.2,819.2 2657.3,819.2 2665.5,819.2 2673.6,819.2 2681.8,819.2 2689.9,819.2 2698.1,819.2 2706.2,819.2 2714.4,819.2 2722.5,819.2 2730.7,819.2 2738.8,819.2 2747,819.2 2755.1,819.2 2763.3,819.2 2771.4,819.2 2779.6,819.2 2787.7,819.2 2795.9,819.2 2804,819.2 2812.2,819.2 2820.3,819.2 2828.5,819.2 2836.7,819.2 2844.8,819.2 2853,819.2 2861.1,819.2 2869.3,819.2 2877.4,819.2 2885.6,819.2 2893.7,819.2 2901.9,819.2 2910,819.2 2918.2,819.2 2926.3,819.2 2934.5,819.2 2942.6,819.2 2950.8,819.2 2958.9,819.2 2967.1,819.2 2975.2,819.2 2983.4,819.2 2991.5,819.2 2999.7,819.2 3007.8,819.2 3016,819.2 3024.1,819.2 3032.3,819.2 3040.4,819.2 3048.6,819.2 3056.7,819.2 3064.9,819.2 3073,819.2 3081.2,819.2 3089.3,819.2 3097.5,819.2 3105.6,819.2 3113.8,819.2 3121.9,819.2 3130.1,819.2 3138.2,819.2 3146.4,819.2 3154.5,819.2 3162.7,819.2 3170.8,819.2 3179,819.2 3187.1,819.2 3195.3,819.2 3203.4,819.2 3211.6,819.2 3219.7,819.2 3227.9,819.2 3236,819.2 3244.2,819.2 3252.3,819.2 3260.5,819.2 3268.6,819.2 " stroke="red" stroke-width="4.8188" />
</g>
</svg>
