<?xml version="1.0" encoding="utf-8"?>
<svg xmlns="http://www.w3.org/2000/svg" xmlns:xlink="http://www.w3.org/1999/xlink" width="600" height="400" viewBox="0 0 2400 1600">
<defs>
  <clipPath id="clip330">
    <rect x="0" y="0" width="2400" height="1600"/>
  </clipPath>
</defs>
<path clip-path="url(#clip330)" d="M0 1600 L2400 1600 L2400 0 L0 0  Z" fill="#ffffff" fill-rule="evenodd" fill-opacity="1"/>
<defs>
  <clipPath id="clip331">
    <rect x="480" y="0" width="1681" height="1600"/>
  </clipPath>
</defs>
<path clip-path="url(#clip330)" d="M252.501 1423.18 L2352.76 1423.18 L2352.76 47.2441 L252.501 47.2441  Z" fill="#ffffff" fill-rule="evenodd" fill-opacity="1"/>
<defs>
  <clipPath id="clip332">
    <rect x="252" y="47" width="2101" height="1377"/>
  </clipPath>
</defs>
<polyline clip-path="url(#clip332)" style="stroke:#000000; stroke-linecap:round; stroke-linejoin:round; stroke-width:2; stroke-opacity:0.1; fill:none" points="270.612,1423.18 270.612,47.2441 "/>
<polyline clip-path="url(#clip332)" style="stroke:#000000; stroke-linecap:round; stroke-linejoin:round; stroke-width:2; stroke-opacity:0.1; fill:none" points="952.132,1423.18 952.132,47.2441 "/>
<polyline clip-path="url(#clip332)" style="stroke:#000000; stroke-linecap:round; stroke-linejoin:round; stroke-width:2; stroke-opacity:0.1; fill:none" points="1633.65,1423.18 1633.65,47.2441 "/>
<polyline clip-path="url(#clip332)" style="stroke:#000000; stroke-linecap:round; stroke-linejoin:round; stroke-width:2; stroke-opacity:0.1; fill:none" points="2315.17,1423.18 2315.17,47.2441 "/>
<polyline clip-path="url(#clip330)" style="stroke:#000000; stroke-linecap:round; stroke-linejoin:round; stroke-width:4; stroke-opacity:1; fill:none" points="252.501,1423.18 2352.76,1423.18 "/>
<polyline clip-path="url(#clip330)" style="stroke:#000000; stroke-linecap:round; stroke-linejoin:round; stroke-width:4; stroke-opacity:1; fill:none" points="270.612,1423.18 270.612,1404.28 "/>
<polyline clip-path="url(#clip330)" style="stroke:#000000; stroke-linecap:round; stroke-linejoin:round; stroke-width:4; stroke-opacity:1; fill:none" points="952.132,1423.18 952.132,1404.28 "/>
<polyline clip-path="url(#clip330)" style="stroke:#000000; stroke-linecap:round; stroke-linejoin:round; stroke-width:4; stroke-opacity:1; fill:none" points="1633.65,1423.18 1633.65,1404.28 "/>
<polyline clip-path="url(#clip330)" style="stroke:#000000; stroke-linecap:round; stroke-linejoin:round; stroke-width:4; stroke-opacity:1; fill:none" points="2315.17,1423.18 2315.17,1404.28 "/>
<path clip-path="url(#clip330)" d="M260.994 1481.64 L268.633 1481.64 L268.633 1455.28 L260.323 1456.95 L260.323 1452.69 L268.586 1451.02 L273.262 1451.02 L273.262 1481.64 L280.901 1481.64 L280.901 1485.58 L260.994 1485.58 L260.994 1481.64 Z" fill="#000000" fill-rule="nonzero" fill-opacity="1" /><path clip-path="url(#clip330)" d="M926.82 1481.64 L934.459 1481.64 L934.459 1455.28 L926.148 1456.95 L926.148 1452.69 L934.412 1451.02 L939.088 1451.02 L939.088 1481.64 L946.727 1481.64 L946.727 1485.58 L926.82 1485.58 L926.82 1481.64 Z" fill="#000000" fill-rule="nonzero" fill-opacity="1" /><path clip-path="url(#clip330)" d="M966.171 1454.1 Q962.56 1454.1 960.732 1457.66 Q958.926 1461.2 958.926 1468.33 Q958.926 1475.44 960.732 1479.01 Q962.56 1482.55 966.171 1482.55 Q969.806 1482.55 971.611 1479.01 Q973.44 1475.44 973.44 1468.33 Q973.44 1461.2 971.611 1457.66 Q969.806 1454.1 966.171 1454.1 M966.171 1450.39 Q971.982 1450.39 975.037 1455 Q978.116 1459.58 978.116 1468.33 Q978.116 1477.06 975.037 1481.67 Q971.982 1486.25 966.171 1486.25 Q960.361 1486.25 957.283 1481.67 Q954.227 1477.06 954.227 1468.33 Q954.227 1459.58 957.283 1455 Q960.361 1450.39 966.171 1450.39 Z" fill="#000000" fill-rule="nonzero" fill-opacity="1" /><path clip-path="url(#clip330)" d="M1593.26 1481.64 L1600.9 1481.64 L1600.9 1455.28 L1592.59 1456.95 L1592.59 1452.69 L1600.85 1451.02 L1605.53 1451.02 L1605.53 1481.64 L1613.17 1481.64 L1613.17 1485.58 L1593.26 1485.58 L1593.26 1481.64 Z" fill="#000000" fill-rule="nonzero" fill-opacity="1" /><path clip-path="url(#clip330)" d="M1632.61 1454.1 Q1629 1454.1 1627.17 1457.66 Q1625.37 1461.2 1625.37 1468.33 Q1625.37 1475.44 1627.17 1479.01 Q1629 1482.55 1632.61 1482.55 Q1636.24 1482.55 1638.05 1479.01 Q1639.88 1475.44 1639.88 1468.33 Q1639.88 1461.2 1638.05 1457.66 Q1636.24 1454.1 1632.61 1454.1 M1632.61 1450.39 Q1638.42 1450.39 1641.48 1455 Q1644.56 1459.58 1644.56 1468.33 Q1644.56 1477.06 1641.48 1481.67 Q1638.42 1486.25 1632.61 1486.25 Q1626.8 1486.25 1623.72 1481.67 Q1620.67 1477.06 1620.67 1468.33 Q1620.67 1459.58 1623.72 1455 Q1626.8 1450.39 1632.61 1450.39 Z" fill="#000000" fill-rule="nonzero" fill-opacity="1" /><path clip-path="url(#clip330)" d="M1662.77 1454.1 Q1659.16 1454.1 1657.33 1457.66 Q1655.53 1461.2 1655.53 1468.33 Q1655.53 1475.44 1657.33 1479.01 Q1659.16 1482.55 1662.77 1482.55 Q1666.41 1482.55 1668.21 1479.01 Q1670.04 1475.44 1670.04 1468.33 Q1670.04 1461.2 1668.21 1457.66 Q1666.41 1454.1 1662.77 1454.1 M1662.77 1450.39 Q1668.58 1450.39 1671.64 1455 Q1674.72 1459.58 1674.72 1468.33 Q1674.72 1477.06 1671.64 1481.67 Q1668.58 1486.25 1662.77 1486.25 Q1656.96 1486.25 1653.88 1481.67 Q1650.83 1477.06 1650.83 1468.33 Q1650.83 1459.58 1653.88 1455 Q1656.96 1450.39 1662.77 1450.39 Z" fill="#000000" fill-rule="nonzero" fill-opacity="1" /><path clip-path="url(#clip330)" d="M2259.7 1481.64 L2267.34 1481.64 L2267.34 1455.28 L2259.03 1456.95 L2259.03 1452.69 L2267.29 1451.02 L2271.97 1451.02 L2271.97 1481.64 L2279.61 1481.64 L2279.61 1485.58 L2259.7 1485.58 L2259.7 1481.64 Z" fill="#000000" fill-rule="nonzero" fill-opacity="1" /><path clip-path="url(#clip330)" d="M2299.05 1454.1 Q2295.44 1454.1 2293.61 1457.66 Q2291.8 1461.2 2291.8 1468.33 Q2291.8 1475.44 2293.61 1479.01 Q2295.44 1482.55 2299.05 1482.55 Q2302.68 1482.55 2304.49 1479.01 Q2306.32 1475.44 2306.32 1468.33 Q2306.32 1461.2 2304.49 1457.66 Q2302.68 1454.1 2299.05 1454.1 M2299.05 1450.39 Q2304.86 1450.39 2307.92 1455 Q2310.99 1459.58 2310.99 1468.33 Q2310.99 1477.06 2307.92 1481.67 Q2304.86 1486.25 2299.05 1486.25 Q2293.24 1486.25 2290.16 1481.67 Q2287.11 1477.06 2287.11 1468.33 Q2287.11 1459.58 2290.16 1455 Q2293.24 1450.39 2299.05 1450.39 Z" fill="#000000" fill-rule="nonzero" fill-opacity="1" /><path clip-path="url(#clip330)" d="M2329.21 1454.1 Q2325.6 1454.1 2323.77 1457.66 Q2321.97 1461.2 2321.97 1468.33 Q2321.97 1475.44 2323.77 1479.01 Q2325.6 1482.55 2329.21 1482.55 Q2332.85 1482.55 2334.65 1479.01 Q2336.48 1475.44 2336.48 1468.33 Q2336.48 1461.2 2334.65 1457.66 Q2332.85 1454.1 2329.21 1454.1 M2329.21 1450.39 Q2335.02 1450.39 2338.08 1455 Q2341.16 1459.58 2341.16 1468.33 Q2341.16 1477.06 2338.08 1481.67 Q2335.02 1486.25 2329.21 1486.25 Q2323.4 1486.25 2320.32 1481.67 Q2317.27 1477.06 2317.27 1468.33 Q2317.27 1459.58 2320.32 1455 Q2323.4 1450.39 2329.21 1450.39 Z" fill="#000000" fill-rule="nonzero" fill-opacity="1" /><path clip-path="url(#clip330)" d="M2359.37 1454.1 Q2355.76 1454.1 2353.93 1457.66 Q2352.13 1461.2 2352.13 1468.33 Q2352.13 1475.44 2353.93 1479.01 Q2355.76 1482.55 2359.37 1482.55 Q2363.01 1482.55 2364.81 1479.01 Q2366.64 1475.44 2366.64 1468.33 Q2366.64 1461.2 2364.81 1457.66 Q2363.01 1454.1 2359.37 1454.1 M2359.37 1450.39 Q2365.18 1450.39 2368.24 1455 Q2371.32 1459.58 2371.32 1468.33 Q2371.32 1477.06 2368.24 1481.67 Q2365.18 1486.25 2359.37 1486.25 Q2353.56 1486.25 2350.48 1481.67 Q2347.43 1477.06 2347.43 1468.33 Q2347.43 1459.58 2350.48 1455 Q2353.56 1450.39 2359.37 1450.39 Z" fill="#000000" fill-rule="nonzero" fill-opacity="1" /><path clip-path="url(#clip330)" d="M1246.56 1537.87 Q1245.58 1537.3 1244.4 1537.04 Q1243.25 1536.76 1241.85 1536.76 Q1236.89 1536.76 1234.21 1540 Q1231.57 1543.22 1231.57 1549.27 L1231.57 1568.04 L1225.68 1568.04 L1225.68 1532.4 L1231.57 1532.4 L1231.57 1537.93 Q1233.42 1534.69 1236.38 1533.13 Q1239.34 1531.54 1243.57 1531.54 Q1244.18 1531.54 1244.91 1531.63 Q1245.64 1531.7 1246.53 1531.85 L1246.56 1537.87 Z" fill="#000000" fill-rule="nonzero" fill-opacity="1" /><path clip-path="url(#clip330)" d="M1287.49 1518.58 Q1283.23 1525.9 1281.16 1533.06 Q1279.09 1540.23 1279.09 1547.58 Q1279.09 1554.93 1281.16 1562.16 Q1283.26 1569.35 1287.49 1576.64 L1282.4 1576.64 Q1277.63 1569.16 1275.24 1561.93 Q1272.88 1554.71 1272.88 1547.58 Q1272.88 1540.48 1275.24 1533.29 Q1277.6 1526.09 1282.4 1518.58 L1287.49 1518.58 Z" fill="#000000" fill-rule="nonzero" fill-opacity="1" /><path clip-path="url(#clip330)" d="M1319.51 1537.87 Q1318.53 1537.3 1317.35 1537.04 Q1316.2 1536.76 1314.8 1536.76 Q1309.84 1536.76 1307.16 1540 Q1304.52 1543.22 1304.52 1549.27 L1304.52 1568.04 L1298.63 1568.04 L1298.63 1532.4 L1304.52 1532.4 L1304.52 1537.93 Q1306.37 1534.69 1309.33 1533.13 Q1312.29 1531.54 1316.52 1531.54 Q1317.13 1531.54 1317.86 1531.63 Q1318.59 1531.7 1319.48 1531.85 L1319.51 1537.87 Z" fill="#000000" fill-rule="nonzero" fill-opacity="1" /><path clip-path="url(#clip330)" d="M1347.97 1549.81 Q1347.97 1543.44 1345.33 1539.94 Q1342.72 1536.44 1337.97 1536.44 Q1333.26 1536.44 1330.62 1539.94 Q1328.01 1543.44 1328.01 1549.81 Q1328.01 1556.14 1330.62 1559.64 Q1333.26 1563.14 1337.97 1563.14 Q1342.72 1563.14 1345.33 1559.64 Q1347.97 1556.14 1347.97 1549.81 M1353.82 1563.62 Q1353.82 1572.72 1349.78 1577.15 Q1345.74 1581.6 1337.4 1581.6 Q1334.31 1581.6 1331.58 1581.13 Q1328.84 1580.68 1326.26 1579.72 L1326.26 1574.03 Q1328.84 1575.43 1331.35 1576.1 Q1333.87 1576.76 1336.48 1576.76 Q1342.24 1576.76 1345.1 1573.74 Q1347.97 1570.75 1347.97 1564.67 L1347.97 1561.77 Q1346.15 1564.92 1343.32 1566.48 Q1340.49 1568.04 1336.54 1568.04 Q1329.98 1568.04 1325.97 1563.05 Q1321.96 1558.05 1321.96 1549.81 Q1321.96 1541.53 1325.97 1536.53 Q1329.98 1531.54 1336.54 1531.54 Q1340.49 1531.54 1343.32 1533.1 Q1346.15 1534.66 1347.97 1537.81 L1347.97 1532.4 L1353.82 1532.4 L1353.82 1563.62 Z" fill="#000000" fill-rule="nonzero" fill-opacity="1" /><path clip-path="url(#clip330)" d="M1364.96 1518.58 L1370.06 1518.58 Q1374.83 1526.09 1377.19 1533.29 Q1379.57 1540.48 1379.57 1547.58 Q1379.57 1554.71 1377.19 1561.93 Q1374.83 1569.16 1370.06 1576.64 L1364.96 1576.64 Q1369.2 1569.35 1371.27 1562.16 Q1373.37 1554.93 1373.37 1547.58 Q1373.37 1540.23 1371.27 1533.06 Q1369.2 1525.9 1364.96 1518.58 Z" fill="#000000" fill-rule="nonzero" fill-opacity="1" /><polyline clip-path="url(#clip332)" style="stroke:#000000; stroke-linecap:round; stroke-linejoin:round; stroke-width:2; stroke-opacity:0.1; fill:none" points="252.501,969.888 2352.76,969.888 "/>
<polyline clip-path="url(#clip332)" style="stroke:#000000; stroke-linecap:round; stroke-linejoin:round; stroke-width:2; stroke-opacity:0.1; fill:none" points="252.501,484.489 2352.76,484.489 "/>
<polyline clip-path="url(#clip330)" style="stroke:#000000; stroke-linecap:round; stroke-linejoin:round; stroke-width:4; stroke-opacity:1; fill:none" points="252.501,1423.18 252.501,47.2441 "/>
<polyline clip-path="url(#clip330)" style="stroke:#000000; stroke-linecap:round; stroke-linejoin:round; stroke-width:4; stroke-opacity:1; fill:none" points="252.501,969.888 271.398,969.888 "/>
<polyline clip-path="url(#clip330)" style="stroke:#000000; stroke-linecap:round; stroke-linejoin:round; stroke-width:4; stroke-opacity:1; fill:none" points="252.501,484.489 271.398,484.489 "/>
<path clip-path="url(#clip330)" d="M114.931 989.68 L122.57 989.68 L122.57 963.315 L114.26 964.981 L114.26 960.722 L122.524 959.055 L127.2 959.055 L127.2 989.68 L134.839 989.68 L134.839 993.615 L114.931 993.615 L114.931 989.68 Z" fill="#000000" fill-rule="nonzero" fill-opacity="1" /><path clip-path="url(#clip330)" d="M154.283 962.134 Q150.672 962.134 148.843 965.699 Q147.038 969.241 147.038 976.37 Q147.038 983.477 148.843 987.041 Q150.672 990.583 154.283 990.583 Q157.917 990.583 159.723 987.041 Q161.552 983.477 161.552 976.37 Q161.552 969.241 159.723 965.699 Q157.917 962.134 154.283 962.134 M154.283 958.43 Q160.093 958.43 163.149 963.037 Q166.227 967.62 166.227 976.37 Q166.227 985.097 163.149 989.703 Q160.093 994.287 154.283 994.287 Q148.473 994.287 145.394 989.703 Q142.339 985.097 142.339 976.37 Q142.339 967.62 145.394 963.037 Q148.473 958.43 154.283 958.43 Z" fill="#000000" fill-rule="nonzero" fill-opacity="1" /><path clip-path="url(#clip330)" d="M166.227 952.532 L190.339 952.532 L190.339 955.729 L166.227 955.729 L166.227 952.532 Z" fill="#000000" fill-rule="nonzero" fill-opacity="1" /><path clip-path="url(#clip330)" d="M207.134 950.651 Q204.577 950.651 203.072 952.4 Q201.586 954.149 201.586 957.196 Q201.586 960.224 203.072 961.992 Q204.577 963.741 207.134 963.741 Q209.692 963.741 211.178 961.992 Q212.683 960.224 212.683 957.196 Q212.683 954.149 211.178 952.4 Q209.692 950.651 207.134 950.651 M214.676 938.746 L214.676 942.206 Q213.247 941.529 211.78 941.172 Q210.332 940.815 208.902 940.815 Q205.141 940.815 203.147 943.354 Q201.172 945.893 200.89 951.027 Q202 949.391 203.674 948.526 Q205.348 947.642 207.36 947.642 Q211.592 947.642 214.037 950.218 Q216.501 952.776 216.501 957.196 Q216.501 961.522 213.943 964.136 Q211.385 966.75 207.134 966.75 Q202.263 966.75 199.686 963.027 Q197.11 959.284 197.11 952.193 Q197.11 945.535 200.27 941.586 Q203.429 937.617 208.752 937.617 Q210.181 937.617 211.629 937.899 Q213.096 938.181 214.676 938.746 Z" fill="#000000" fill-rule="nonzero" fill-opacity="1" /><path clip-path="url(#clip330)" d="M115.59 504.281 L123.229 504.281 L123.229 477.916 L114.918 479.582 L114.918 475.323 L123.182 473.656 L127.858 473.656 L127.858 504.281 L135.497 504.281 L135.497 508.216 L115.59 508.216 L115.59 504.281 Z" fill="#000000" fill-rule="nonzero" fill-opacity="1" /><path clip-path="url(#clip330)" d="M154.941 476.735 Q151.33 476.735 149.502 480.3 Q147.696 483.842 147.696 490.971 Q147.696 498.078 149.502 501.642 Q151.33 505.184 154.941 505.184 Q158.576 505.184 160.381 501.642 Q162.21 498.078 162.21 490.971 Q162.21 483.842 160.381 480.3 Q158.576 476.735 154.941 476.735 M154.941 473.031 Q160.752 473.031 163.807 477.638 Q166.886 482.221 166.886 490.971 Q166.886 499.698 163.807 504.304 Q160.752 508.888 154.941 508.888 Q149.131 508.888 146.053 504.304 Q142.997 499.698 142.997 490.971 Q142.997 482.221 146.053 477.638 Q149.131 473.031 154.941 473.031 Z" fill="#000000" fill-rule="nonzero" fill-opacity="1" /><path clip-path="url(#clip330)" d="M166.886 467.133 L190.997 467.133 L190.997 470.33 L166.886 470.33 L166.886 467.133 Z" fill="#000000" fill-rule="nonzero" fill-opacity="1" /><path clip-path="url(#clip330)" d="M210.708 465.666 Q213.435 466.249 214.958 468.092 Q216.501 469.935 216.501 472.643 Q216.501 476.8 213.642 479.076 Q210.783 481.351 205.517 481.351 Q203.749 481.351 201.868 480.994 Q200.006 480.656 198.013 479.96 L198.013 476.292 Q199.592 477.214 201.473 477.684 Q203.354 478.154 205.404 478.154 Q208.978 478.154 210.84 476.744 Q212.72 475.333 212.72 472.643 Q212.72 470.161 210.971 468.769 Q209.241 467.359 206.138 467.359 L202.865 467.359 L202.865 464.236 L206.288 464.236 Q209.09 464.236 210.576 463.127 Q212.062 461.998 212.062 459.892 Q212.062 457.729 210.52 456.582 Q208.996 455.416 206.138 455.416 Q204.577 455.416 202.79 455.754 Q201.003 456.093 198.859 456.807 L198.859 453.422 Q201.022 452.82 202.903 452.519 Q204.802 452.218 206.476 452.218 Q210.802 452.218 213.322 454.193 Q215.842 456.149 215.842 459.497 Q215.842 461.829 214.507 463.446 Q213.172 465.045 210.708 465.666 Z" fill="#000000" fill-rule="nonzero" fill-opacity="1" /><path clip-path="url(#clip330)" d="M44.7797 839.785 Q44.0158 843.349 41.947 845.259 Q39.91 847.169 36.9499 847.169 Q32.4621 847.169 29.9476 843.54 Q27.465 839.944 27.465 833.705 Q27.465 831.286 27.8469 828.581 Q28.2289 825.876 28.9928 822.756 L34.3081 822.756 Q33.3851 825.844 32.9713 828.39 Q32.5576 830.968 32.5576 833.228 Q32.5576 837.016 34.0217 839.212 Q35.4858 841.44 37.5228 841.44 Q39.7508 841.44 41.1831 839.275 Q42.5836 837.143 42.5836 833.451 L42.5836 828.517 L47.4215 828.517 L47.4215 833.228 Q47.4215 837.588 49.0447 839.88 Q50.8271 842.363 53.6281 842.363 Q56.4926 842.363 58.275 839.689 Q60.0574 836.984 60.0574 832.178 Q60.0574 829.218 59.4845 826.512 Q58.8798 823.807 57.7021 821.547 L63.1448 821.547 Q64.036 824.411 64.4816 827.085 Q64.9272 829.79 64.9272 832.337 Q64.9272 839.912 62.0308 844.018 Q59.1344 848.124 53.6281 848.124 Q50.1906 848.124 47.8671 845.928 Q45.5436 843.731 44.7797 839.785 Z" fill="#000000" fill-rule="nonzero" fill-opacity="1" /><path clip-path="url(#clip330)" d="M14.5426 776.191 Q21.8632 780.456 29.0246 782.525 Q36.186 784.594 43.5384 784.594 Q50.8908 784.594 58.1159 782.525 Q65.3091 780.424 72.5979 776.191 L72.5979 781.284 Q65.1182 786.058 57.8931 788.445 Q50.668 790.801 43.5384 790.801 Q36.4406 790.801 29.2474 788.445 Q22.0542 786.09 14.5426 781.284 L14.5426 776.191 Z" fill="#000000" fill-rule="nonzero" fill-opacity="1" /><path clip-path="url(#clip330)" d="M46.0847 748.628 Q46.0847 755.725 47.7079 758.463 Q49.3312 761.2 53.2461 761.2 Q56.3653 761.2 58.2114 759.163 Q60.0256 757.094 60.0256 753.561 Q60.0256 748.691 56.5881 745.763 Q53.1188 742.803 47.3897 742.803 L46.0847 742.803 L46.0847 748.628 M43.6657 736.947 L64.0042 736.947 L64.0042 742.803 L58.5933 742.803 Q61.8398 744.808 63.3994 747.8 Q64.9272 750.792 64.9272 755.121 Q64.9272 760.595 61.8716 763.842 Q58.7843 767.056 53.6281 767.056 Q47.6125 767.056 44.5569 763.046 Q41.5014 759.004 41.5014 751.015 L41.5014 742.803 L40.9285 742.803 Q36.8862 742.803 34.6901 745.477 Q32.4621 748.118 32.4621 752.925 Q32.4621 755.98 33.1941 758.876 Q33.9262 761.773 35.3903 764.446 L29.9795 764.446 Q28.7381 761.232 28.1334 758.208 Q27.4968 755.184 27.4968 752.32 Q27.4968 744.585 31.5072 740.766 Q35.5176 736.947 43.6657 736.947 Z" fill="#000000" fill-rule="nonzero" fill-opacity="1" /><path clip-path="url(#clip330)" d="M33.8307 704.227 Q33.2578 705.214 33.0032 706.391 Q32.7167 707.537 32.7167 708.938 Q32.7167 713.903 35.9632 716.576 Q39.1779 719.218 45.2253 719.218 L64.0042 719.218 L64.0042 725.106 L28.3562 725.106 L28.3562 719.218 L33.8944 719.218 Q30.6479 717.372 29.0883 714.412 Q27.4968 711.452 27.4968 707.219 Q27.4968 706.614 27.5923 705.882 Q27.656 705.15 27.8151 704.259 L33.8307 704.227 Z" fill="#000000" fill-rule="nonzero" fill-opacity="1" /><path clip-path="url(#clip330)" d="M46.212 672.494 Q39.7508 672.494 36.0905 675.167 Q32.3984 677.809 32.3984 682.456 Q32.3984 687.103 36.0905 689.777 Q39.7508 692.419 46.212 692.419 Q52.6732 692.419 56.3653 689.777 Q60.0256 687.103 60.0256 682.456 Q60.0256 677.809 56.3653 675.167 Q52.6732 672.494 46.212 672.494 M33.7671 692.419 Q30.5842 690.572 29.0564 687.772 Q27.4968 684.939 27.4968 681.024 Q27.4968 674.531 32.6531 670.489 Q37.8093 666.415 46.212 666.415 Q54.6147 666.415 59.771 670.489 Q64.9272 674.531 64.9272 681.024 Q64.9272 684.939 63.3994 687.772 Q61.8398 690.572 58.657 692.419 L64.0042 692.419 L64.0042 698.307 L14.479 698.307 L14.479 692.419 L33.7671 692.419 Z" fill="#000000" fill-rule="nonzero" fill-opacity="1" /><path clip-path="url(#clip330)" d="M55.9197 655.879 L55.9197 649.164 L64.0042 649.164 L64.0042 655.879 L55.9197 655.879 Z" fill="#000000" fill-rule="nonzero" fill-opacity="1" /><path clip-path="url(#clip330)" d="M14.5426 636.91 L14.5426 631.817 Q22.0542 627.043 29.2474 624.687 Q36.4406 622.3 43.5384 622.3 Q50.668 622.3 57.8931 624.687 Q65.1182 627.043 72.5979 631.817 L72.5979 636.91 Q65.3091 632.676 58.1159 630.607 Q50.8908 628.507 43.5384 628.507 Q36.186 628.507 29.0246 630.607 Q21.8632 632.676 14.5426 636.91 Z" fill="#000000" fill-rule="nonzero" fill-opacity="1" /><polyline clip-path="url(#clip332)" style="stroke:#000000; stroke-linecap:round; stroke-linejoin:round; stroke-width:4; stroke-opacity:1; fill:none" points="311.942,86.1857 332.16,133.231 352.378,156.814 372.596,181.505 392.814,208.697 413.032,221.111 433.25,233.957 453.468,243.922 473.687,266.049 493.905,271.139 514.123,275.869 534.341,291.942 554.559,300.202 574.777,300.963 594.995,308.786 615.213,323.259 635.431,324.532 655.649,331.11 675.867,339.956 696.086,346.34 716.304,349.983 736.522,353.222 756.74,363.682 776.958,371.962 797.176,378.544 817.394,383.06 837.612,388.259 857.83,399.417 878.048,408.53 898.266,417.168 918.485,426.221 938.703,435.375 958.921,443.032 979.139,453.006 999.357,465.781 1019.58,475.393 1039.79,487.135 1060.01,497.584 1080.23,508.884 1100.45,521.881 1120.67,538.592 1140.88,548.644 1161.1,561.109 1181.32,574.141 1201.54,588.781 1221.76,603.555 1241.97,616.414 1262.19,630.644 1282.41,643.294 1302.63,659.589 1322.85,673.625 1343.06,687.528 1363.28,703.624 1383.5,715.195 1403.72,730.625 1423.94,744.618 1444.15,756.855 1464.37,772.463 1484.59,786.824 1504.81,807.885 1525.03,818.268 1545.25,829.733 1565.46,852.146 1585.68,863.076 1605.9,874.919 1626.12,889.806 1646.34,906.08 1666.55,920.491 1686.77,933.113 1706.99,954.093 1727.21,963.769 1747.43,979.673 1767.64,994.076 1787.86,1004.67 1808.08,1020.32 1828.3,1038.58 1848.52,1051.59 1868.73,1069.61 1888.95,1084.14 1909.17,1091.73 1929.39,1109.97 1949.61,1129.41 1969.83,1144.91 1990.04,1154.95 2010.26,1172.4 2030.48,1180.21 2050.7,1193.51 2070.92,1204.08 2091.13,1225.09 2111.35,1234.15 2131.57,1264.36 2151.79,1268.24 2172.01,1286.65 2192.22,1293.21 2212.44,1307.46 2232.66,1328.3 2252.88,1335.16 2273.1,1359.78 2293.31,1384.24 "/>
<polyline clip-path="url(#clip332)" style="stroke:#e26f46; stroke-linecap:round; stroke-linejoin:round; stroke-width:4; stroke-opacity:1; fill:none" points="336.624,127.863 522.391,299.046 708.159,347.752 893.926,412.139 1079.69,509.552 2293.31,1378.09 "/>
<line clip-path="url(#clip332)" x1="336.624" y1="127.863" x2="324.624" y2="115.863" style="stroke:#e26f46; stroke-width:4; stroke-opacity:1"/>
<line clip-path="url(#clip332)" x1="336.624" y1="127.863" x2="324.624" y2="139.863" style="stroke:#e26f46; stroke-width:4; stroke-opacity:1"/>
<line clip-path="url(#clip332)" x1="336.624" y1="127.863" x2="348.624" y2="139.863" style="stroke:#e26f46; stroke-width:4; stroke-opacity:1"/>
<line clip-path="url(#clip332)" x1="336.624" y1="127.863" x2="348.624" y2="115.863" style="stroke:#e26f46; stroke-width:4; stroke-opacity:1"/>
<line clip-path="url(#clip332)" x1="522.391" y1="299.046" x2="510.391" y2="287.046" style="stroke:#e26f46; stroke-width:4; stroke-opacity:1"/>
<line clip-path="url(#clip332)" x1="522.391" y1="299.046" x2="510.391" y2="311.046" style="stroke:#e26f46; stroke-width:4; stroke-opacity:1"/>
<line clip-path="url(#clip332)" x1="522.391" y1="299.046" x2="534.391" y2="311.046" style="stroke:#e26f46; stroke-width:4; stroke-opacity:1"/>
<line clip-path="url(#clip332)" x1="522.391" y1="299.046" x2="534.391" y2="287.046" style="stroke:#e26f46; stroke-width:4; stroke-opacity:1"/>
<line clip-path="url(#clip332)" x1="708.159" y1="347.752" x2="696.159" y2="335.752" style="stroke:#e26f46; stroke-width:4; stroke-opacity:1"/>
<line clip-path="url(#clip332)" x1="708.159" y1="347.752" x2="696.159" y2="359.752" style="stroke:#e26f46; stroke-width:4; stroke-opacity:1"/>
<line clip-path="url(#clip332)" x1="708.159" y1="347.752" x2="720.159" y2="359.752" style="stroke:#e26f46; stroke-width:4; stroke-opacity:1"/>
<line clip-path="url(#clip332)" x1="708.159" y1="347.752" x2="720.159" y2="335.752" style="stroke:#e26f46; stroke-width:4; stroke-opacity:1"/>
<line clip-path="url(#clip332)" x1="893.926" y1="412.139" x2="881.926" y2="400.139" style="stroke:#e26f46; stroke-width:4; stroke-opacity:1"/>
<line clip-path="url(#clip332)" x1="893.926" y1="412.139" x2="881.926" y2="424.139" style="stroke:#e26f46; stroke-width:4; stroke-opacity:1"/>
<line clip-path="url(#clip332)" x1="893.926" y1="412.139" x2="905.926" y2="424.139" style="stroke:#e26f46; stroke-width:4; stroke-opacity:1"/>
<line clip-path="url(#clip332)" x1="893.926" y1="412.139" x2="905.926" y2="400.139" style="stroke:#e26f46; stroke-width:4; stroke-opacity:1"/>
<line clip-path="url(#clip332)" x1="1079.69" y1="509.552" x2="1067.69" y2="497.552" style="stroke:#e26f46; stroke-width:4; stroke-opacity:1"/>
<line clip-path="url(#clip332)" x1="1079.69" y1="509.552" x2="1067.69" y2="521.552" style="stroke:#e26f46; stroke-width:4; stroke-opacity:1"/>
<line clip-path="url(#clip332)" x1="1079.69" y1="509.552" x2="1091.69" y2="521.552" style="stroke:#e26f46; stroke-width:4; stroke-opacity:1"/>
<line clip-path="url(#clip332)" x1="1079.69" y1="509.552" x2="1091.69" y2="497.552" style="stroke:#e26f46; stroke-width:4; stroke-opacity:1"/>
<line clip-path="url(#clip332)" x1="2293.31" y1="1378.09" x2="2281.31" y2="1366.09" style="stroke:#e26f46; stroke-width:4; stroke-opacity:1"/>
<line clip-path="url(#clip332)" x1="2293.31" y1="1378.09" x2="2281.31" y2="1390.09" style="stroke:#e26f46; stroke-width:4; stroke-opacity:1"/>
<line clip-path="url(#clip332)" x1="2293.31" y1="1378.09" x2="2305.31" y2="1390.09" style="stroke:#e26f46; stroke-width:4; stroke-opacity:1"/>
<line clip-path="url(#clip332)" x1="2293.31" y1="1378.09" x2="2305.31" y2="1366.09" style="stroke:#e26f46; stroke-width:4; stroke-opacity:1"/>
<polyline clip-path="url(#clip332)" style="stroke:#000000; stroke-linecap:round; stroke-linejoin:round; stroke-width:4; stroke-opacity:1; fill:none" stroke-dasharray="2, 4" points="336.624,2799.12 336.624,-1328.69 "/>
<polyline clip-path="url(#clip332)" style="stroke:#000000; stroke-linecap:round; stroke-linejoin:round; stroke-width:4; stroke-opacity:1; fill:none" stroke-dasharray="2, 4" points="522.391,2799.12 522.391,-1328.69 "/>
<polyline clip-path="url(#clip332)" style="stroke:#000000; stroke-linecap:round; stroke-linejoin:round; stroke-width:4; stroke-opacity:1; fill:none" stroke-dasharray="2, 4" points="708.159,2799.12 708.159,-1328.69 "/>
<polyline clip-path="url(#clip332)" style="stroke:#000000; stroke-linecap:round; stroke-linejoin:round; stroke-width:4; stroke-opacity:1; fill:none" stroke-dasharray="2, 4" points="893.926,2799.12 893.926,-1328.69 "/>
<polyline clip-path="url(#clip332)" style="stroke:#000000; stroke-linecap:round; stroke-linejoin:round; stroke-width:4; stroke-opacity:1; fill:none" stroke-dasharray="2, 4" points="1079.69,2799.12 1079.69,-1328.69 "/>
<polyline clip-path="url(#clip332)" style="stroke:#000000; stroke-linecap:round; stroke-linejoin:round; stroke-width:4; stroke-opacity:1; fill:none" stroke-dasharray="2, 4" points="2293.31,2799.12 2293.31,-1328.69 "/>
<path clip-path="url(#clip330)" d="M1778.63 248.629 L2282.75 248.629 L2282.75 93.1086 L1778.63 93.1086  Z" fill="#ffffff" fill-rule="evenodd" fill-opacity="1"/>
<polyline clip-path="url(#clip330)" style="stroke:#000000; stroke-linecap:round; stroke-linejoin:round; stroke-width:4; stroke-opacity:1; fill:none" points="1778.63,248.629 2282.75,248.629 2282.75,93.1086 1778.63,93.1086 1778.63,248.629 "/>
<polyline clip-path="url(#clip330)" style="stroke:#000000; stroke-linecap:round; stroke-linejoin:round; stroke-width:4; stroke-opacity:1; fill:none" points="1801.96,144.949 1941.98,144.949 "/>
<path clip-path="url(#clip330)" d="M1972.72 128.942 L1972.72 136.303 L1981.5 136.303 L1981.5 139.613 L1972.72 139.613 L1972.72 153.687 Q1972.72 156.858 1973.58 157.761 Q1974.46 158.664 1977.12 158.664 L1981.5 158.664 L1981.5 162.229 L1977.12 162.229 Q1972.19 162.229 1970.32 160.4 Q1968.44 158.548 1968.44 153.687 L1968.44 139.613 L1965.32 139.613 L1965.32 136.303 L1968.44 136.303 L1968.44 128.942 L1972.72 128.942 Z" fill="#000000" fill-rule="nonzero" fill-opacity="1" /><path clip-path="url(#clip330)" d="M2008.65 146.581 L2008.65 162.229 L2004.39 162.229 L2004.39 146.719 Q2004.39 143.039 2002.95 141.21 Q2001.52 139.382 1998.65 139.382 Q1995.2 139.382 1993.21 141.581 Q1991.22 143.78 1991.22 147.576 L1991.22 162.229 L1986.94 162.229 L1986.94 126.21 L1991.22 126.21 L1991.22 140.331 Q1992.75 137.993 1994.81 136.835 Q1996.89 135.678 1999.6 135.678 Q2004.07 135.678 2006.36 138.456 Q2008.65 141.21 2008.65 146.581 Z" fill="#000000" fill-rule="nonzero" fill-opacity="1" /><path clip-path="url(#clip330)" d="M2039.32 148.201 L2039.32 150.284 L2019.74 150.284 Q2020.01 154.682 2022.38 156.997 Q2024.76 159.289 2029 159.289 Q2031.45 159.289 2033.74 158.687 Q2036.06 158.085 2038.32 156.881 L2038.32 160.909 Q2036.03 161.881 2033.63 162.391 Q2031.22 162.9 2028.74 162.9 Q2022.54 162.9 2018.9 159.289 Q2015.29 155.678 2015.29 149.52 Q2015.29 143.155 2018.72 139.428 Q2022.17 135.678 2028 135.678 Q2033.23 135.678 2036.26 139.057 Q2039.32 142.414 2039.32 148.201 M2035.06 146.951 Q2035.01 143.456 2033.09 141.372 Q2031.19 139.289 2028.05 139.289 Q2024.48 139.289 2022.33 141.303 Q2020.2 143.317 2019.88 146.974 L2035.06 146.951 Z" fill="#000000" fill-rule="nonzero" fill-opacity="1" /><path clip-path="url(#clip330)" d="M2056.36 139.289 Q2052.93 139.289 2050.94 141.974 Q2048.95 144.636 2048.95 149.289 Q2048.95 153.942 2050.92 156.627 Q2052.91 159.289 2056.36 159.289 Q2059.76 159.289 2061.75 156.604 Q2063.74 153.918 2063.74 149.289 Q2063.74 144.682 2061.75 141.997 Q2059.76 139.289 2056.36 139.289 M2056.36 135.678 Q2061.91 135.678 2065.08 139.289 Q2068.25 142.9 2068.25 149.289 Q2068.25 155.655 2065.08 159.289 Q2061.91 162.9 2056.36 162.9 Q2050.78 162.9 2047.61 159.289 Q2044.46 155.655 2044.46 149.289 Q2044.46 142.9 2047.61 139.289 Q2050.78 135.678 2056.36 135.678 Z" fill="#000000" fill-rule="nonzero" fill-opacity="1" /><path clip-path="url(#clip330)" d="M2090.34 140.284 Q2089.62 139.868 2088.76 139.682 Q2087.93 139.474 2086.91 139.474 Q2083.3 139.474 2081.36 141.835 Q2079.44 144.173 2079.44 148.571 L2079.44 162.229 L2075.15 162.229 L2075.15 136.303 L2079.44 136.303 L2079.44 140.331 Q2080.78 137.969 2082.93 136.835 Q2085.08 135.678 2088.16 135.678 Q2088.6 135.678 2089.13 135.747 Q2089.67 135.794 2090.31 135.909 L2090.34 140.284 Z" fill="#000000" fill-rule="nonzero" fill-opacity="1" /><path clip-path="url(#clip330)" d="M2115.94 148.201 L2115.94 150.284 L2096.36 150.284 Q2096.63 154.682 2099 156.997 Q2101.38 159.289 2105.62 159.289 Q2108.07 159.289 2110.36 158.687 Q2112.68 158.085 2114.94 156.881 L2114.94 160.909 Q2112.65 161.881 2110.25 162.391 Q2107.84 162.9 2105.36 162.9 Q2099.16 162.9 2095.52 159.289 Q2091.91 155.678 2091.91 149.52 Q2091.91 143.155 2095.34 139.428 Q2098.79 135.678 2104.62 135.678 Q2109.85 135.678 2112.88 139.057 Q2115.94 142.414 2115.94 148.201 M2111.68 146.951 Q2111.63 143.456 2109.71 141.372 Q2107.81 139.289 2104.67 139.289 Q2101.1 139.289 2098.95 141.303 Q2096.82 143.317 2096.5 146.974 L2111.68 146.951 Z" fill="#000000" fill-rule="nonzero" fill-opacity="1" /><path clip-path="url(#clip330)" d="M2127.14 128.942 L2127.14 136.303 L2135.92 136.303 L2135.92 139.613 L2127.14 139.613 L2127.14 153.687 Q2127.14 156.858 2128 157.761 Q2128.88 158.664 2131.54 158.664 L2135.92 158.664 L2135.92 162.229 L2131.54 162.229 Q2126.61 162.229 2124.74 160.4 Q2122.86 158.548 2122.86 153.687 L2122.86 139.613 L2119.74 139.613 L2119.74 136.303 L2122.86 136.303 L2122.86 128.942 L2127.14 128.942 Z" fill="#000000" fill-rule="nonzero" fill-opacity="1" /><path clip-path="url(#clip330)" d="M2141.52 136.303 L2145.78 136.303 L2145.78 162.229 L2141.52 162.229 L2141.52 136.303 M2141.52 126.21 L2145.78 126.21 L2145.78 131.604 L2141.52 131.604 L2141.52 126.21 Z" fill="#000000" fill-rule="nonzero" fill-opacity="1" /><path clip-path="url(#clip330)" d="M2173.35 137.298 L2173.35 141.28 Q2171.54 140.284 2169.71 139.798 Q2167.91 139.289 2166.06 139.289 Q2161.91 139.289 2159.62 141.928 Q2157.33 144.544 2157.33 149.289 Q2157.33 154.034 2159.62 156.673 Q2161.91 159.289 2166.06 159.289 Q2167.91 159.289 2169.71 158.803 Q2171.54 158.293 2173.35 157.298 L2173.35 161.233 Q2171.56 162.067 2169.64 162.483 Q2167.75 162.9 2165.59 162.9 Q2159.74 162.9 2156.29 159.219 Q2152.84 155.539 2152.84 149.289 Q2152.84 142.946 2156.31 139.312 Q2159.81 135.678 2165.87 135.678 Q2167.84 135.678 2169.71 136.095 Q2171.59 136.488 2173.35 137.298 Z" fill="#000000" fill-rule="nonzero" fill-opacity="1" /><path clip-path="url(#clip330)" d="M2192.54 149.196 Q2187.37 149.196 2185.38 150.377 Q2183.39 151.557 2183.39 154.405 Q2183.39 156.673 2184.87 158.016 Q2186.38 159.335 2188.95 159.335 Q2192.49 159.335 2194.62 156.835 Q2196.77 154.312 2196.77 150.145 L2196.77 149.196 L2192.54 149.196 M2201.03 147.437 L2201.03 162.229 L2196.77 162.229 L2196.77 158.293 Q2195.31 160.655 2193.14 161.789 Q2190.96 162.9 2187.81 162.9 Q2183.83 162.9 2181.47 160.678 Q2179.13 158.432 2179.13 154.682 Q2179.13 150.307 2182.05 148.085 Q2184.99 145.863 2190.8 145.863 L2196.77 145.863 L2196.77 145.446 Q2196.77 142.507 2194.83 140.909 Q2192.91 139.289 2189.41 139.289 Q2187.19 139.289 2185.08 139.821 Q2182.98 140.354 2181.03 141.419 L2181.03 137.483 Q2183.37 136.581 2185.57 136.141 Q2187.77 135.678 2189.85 135.678 Q2195.48 135.678 2198.25 138.594 Q2201.03 141.511 2201.03 147.437 Z" fill="#000000" fill-rule="nonzero" fill-opacity="1" /><path clip-path="url(#clip330)" d="M2209.81 126.21 L2214.06 126.21 L2214.06 162.229 L2209.81 162.229 L2209.81 126.21 Z" fill="#000000" fill-rule="nonzero" fill-opacity="1" /><polyline clip-path="url(#clip330)" style="stroke:#e26f46; stroke-linecap:round; stroke-linejoin:round; stroke-width:4; stroke-opacity:1; fill:none" points="1801.96,196.789 1941.98,196.789 "/>
<line clip-path="url(#clip330)" x1="1871.97" y1="196.789" x2="1850.36" y2="175.181" style="stroke:#e26f46; stroke-width:5.85143; stroke-opacity:1"/>
<line clip-path="url(#clip330)" x1="1871.97" y1="196.789" x2="1850.36" y2="218.396" style="stroke:#e26f46; stroke-width:5.85143; stroke-opacity:1"/>
<line clip-path="url(#clip330)" x1="1871.97" y1="196.789" x2="1893.58" y2="218.396" style="stroke:#e26f46; stroke-width:5.85143; stroke-opacity:1"/>
<line clip-path="url(#clip330)" x1="1871.97" y1="196.789" x2="1893.58" y2="175.181" style="stroke:#e26f46; stroke-width:5.85143; stroke-opacity:1"/>
<path clip-path="url(#clip330)" d="M1965.32 188.143 L1969.57 188.143 L1969.57 214.069 L1965.32 214.069 L1965.32 188.143 M1965.32 178.05 L1969.57 178.05 L1969.57 183.444 L1965.32 183.444 L1965.32 178.05 Z" fill="#000000" fill-rule="nonzero" fill-opacity="1" /><path clip-path="url(#clip330)" d="M2000.04 198.421 L2000.04 214.069 L1995.78 214.069 L1995.78 198.559 Q1995.78 194.879 1994.34 193.05 Q1992.91 191.222 1990.04 191.222 Q1986.59 191.222 1984.6 193.421 Q1982.61 195.62 1982.61 199.416 L1982.61 214.069 L1978.32 214.069 L1978.32 188.143 L1982.61 188.143 L1982.61 192.171 Q1984.13 189.833 1986.2 188.675 Q1988.28 187.518 1990.99 187.518 Q1995.45 187.518 1997.75 190.296 Q2000.04 193.05 2000.04 198.421 Z" fill="#000000" fill-rule="nonzero" fill-opacity="1" /><path clip-path="url(#clip330)" d="M2012.75 180.782 L2012.75 188.143 L2021.52 188.143 L2021.52 191.453 L2012.75 191.453 L2012.75 205.527 Q2012.75 208.698 2013.6 209.601 Q2014.48 210.504 2017.14 210.504 L2021.52 210.504 L2021.52 214.069 L2017.14 214.069 Q2012.21 214.069 2010.34 212.24 Q2008.46 210.388 2008.46 205.527 L2008.46 191.453 L2005.34 191.453 L2005.34 188.143 L2008.46 188.143 L2008.46 180.782 L2012.75 180.782 Z" fill="#000000" fill-rule="nonzero" fill-opacity="1" /><path clip-path="url(#clip330)" d="M2049.3 200.041 L2049.3 202.124 L2029.71 202.124 Q2029.99 206.522 2032.35 208.837 Q2034.74 211.129 2038.97 211.129 Q2041.43 211.129 2043.72 210.527 Q2046.03 209.925 2048.3 208.721 L2048.3 212.749 Q2046.01 213.721 2043.6 214.231 Q2041.19 214.74 2038.72 214.74 Q2032.51 214.74 2028.88 211.129 Q2025.27 207.518 2025.27 201.36 Q2025.27 194.995 2028.69 191.268 Q2032.14 187.518 2037.98 187.518 Q2043.21 187.518 2046.24 190.897 Q2049.3 194.254 2049.3 200.041 M2045.04 198.791 Q2044.99 195.296 2043.07 193.212 Q2041.17 191.129 2038.02 191.129 Q2034.46 191.129 2032.31 193.143 Q2030.18 195.157 2029.85 198.814 L2045.04 198.791 Z" fill="#000000" fill-rule="nonzero" fill-opacity="1" /><path clip-path="url(#clip330)" d="M2071.31 192.124 Q2070.59 191.708 2069.74 191.522 Q2068.9 191.314 2067.88 191.314 Q2064.27 191.314 2062.33 193.675 Q2060.41 196.013 2060.41 200.411 L2060.41 214.069 L2056.13 214.069 L2056.13 188.143 L2060.41 188.143 L2060.41 192.171 Q2061.75 189.809 2063.9 188.675 Q2066.06 187.518 2069.13 187.518 Q2069.57 187.518 2070.11 187.587 Q2070.64 187.634 2071.29 187.749 L2071.31 192.124 Z" fill="#000000" fill-rule="nonzero" fill-opacity="1" /><path clip-path="url(#clip330)" d="M2079.9 210.18 L2079.9 223.93 L2075.62 223.93 L2075.62 188.143 L2079.9 188.143 L2079.9 192.078 Q2081.24 189.763 2083.28 188.652 Q2085.34 187.518 2088.19 187.518 Q2092.91 187.518 2095.85 191.268 Q2098.81 195.018 2098.81 201.129 Q2098.81 207.24 2095.85 210.99 Q2092.91 214.74 2088.19 214.74 Q2085.34 214.74 2083.28 213.629 Q2081.24 212.495 2079.9 210.18 M2094.39 201.129 Q2094.39 196.43 2092.44 193.768 Q2090.52 191.083 2087.14 191.083 Q2083.76 191.083 2081.82 193.768 Q2079.9 196.43 2079.9 201.129 Q2079.9 205.828 2081.82 208.513 Q2083.76 211.175 2087.14 211.175 Q2090.52 211.175 2092.44 208.513 Q2094.39 205.828 2094.39 201.129 Z" fill="#000000" fill-rule="nonzero" fill-opacity="1" /><path clip-path="url(#clip330)" d="M2115.92 191.129 Q2112.49 191.129 2110.5 193.814 Q2108.51 196.476 2108.51 201.129 Q2108.51 205.782 2110.48 208.467 Q2112.47 211.129 2115.92 211.129 Q2119.32 211.129 2121.31 208.444 Q2123.3 205.758 2123.3 201.129 Q2123.3 196.522 2121.31 193.837 Q2119.32 191.129 2115.92 191.129 M2115.92 187.518 Q2121.47 187.518 2124.64 191.129 Q2127.81 194.74 2127.81 201.129 Q2127.81 207.495 2124.64 211.129 Q2121.47 214.74 2115.92 214.74 Q2110.34 214.74 2107.17 211.129 Q2104.02 207.495 2104.02 201.129 Q2104.02 194.74 2107.17 191.129 Q2110.34 187.518 2115.92 187.518 Z" fill="#000000" fill-rule="nonzero" fill-opacity="1" /><path clip-path="url(#clip330)" d="M2134.87 178.05 L2139.13 178.05 L2139.13 214.069 L2134.87 214.069 L2134.87 178.05 Z" fill="#000000" fill-rule="nonzero" fill-opacity="1" /><path clip-path="url(#clip330)" d="M2159.83 201.036 Q2154.67 201.036 2152.68 202.217 Q2150.68 203.397 2150.68 206.245 Q2150.68 208.513 2152.17 209.856 Q2153.67 211.175 2156.24 211.175 Q2159.78 211.175 2161.91 208.675 Q2164.06 206.152 2164.06 201.985 L2164.06 201.036 L2159.83 201.036 M2168.32 199.277 L2168.32 214.069 L2164.06 214.069 L2164.06 210.133 Q2162.61 212.495 2160.43 213.629 Q2158.25 214.74 2155.11 214.74 Q2151.12 214.74 2148.76 212.518 Q2146.43 210.272 2146.43 206.522 Q2146.43 202.147 2149.34 199.925 Q2152.28 197.703 2158.09 197.703 L2164.06 197.703 L2164.06 197.286 Q2164.06 194.347 2162.12 192.749 Q2160.2 191.129 2156.7 191.129 Q2154.48 191.129 2152.37 191.661 Q2150.27 192.194 2148.32 193.259 L2148.32 189.323 Q2150.66 188.421 2152.86 187.981 Q2155.06 187.518 2157.14 187.518 Q2162.77 187.518 2165.55 190.434 Q2168.32 193.351 2168.32 199.277 Z" fill="#000000" fill-rule="nonzero" fill-opacity="1" /><path clip-path="url(#clip330)" d="M2181.31 180.782 L2181.31 188.143 L2190.08 188.143 L2190.08 191.453 L2181.31 191.453 L2181.31 205.527 Q2181.31 208.698 2182.17 209.601 Q2183.05 210.504 2185.71 210.504 L2190.08 210.504 L2190.08 214.069 L2185.71 214.069 Q2180.78 214.069 2178.9 212.24 Q2177.03 210.388 2177.03 205.527 L2177.03 191.453 L2173.9 191.453 L2173.9 188.143 L2177.03 188.143 L2177.03 180.782 L2181.31 180.782 Z" fill="#000000" fill-rule="nonzero" fill-opacity="1" /><path clip-path="url(#clip330)" d="M2195.68 188.143 L2199.94 188.143 L2199.94 214.069 L2195.68 214.069 L2195.68 188.143 M2195.68 178.05 L2199.94 178.05 L2199.94 183.444 L2195.68 183.444 L2195.68 178.05 Z" fill="#000000" fill-rule="nonzero" fill-opacity="1" /><path clip-path="url(#clip330)" d="M2218.9 191.129 Q2215.48 191.129 2213.49 193.814 Q2211.49 196.476 2211.49 201.129 Q2211.49 205.782 2213.46 208.467 Q2215.45 211.129 2218.9 211.129 Q2222.3 211.129 2224.3 208.444 Q2226.29 205.758 2226.29 201.129 Q2226.29 196.522 2224.3 193.837 Q2222.3 191.129 2218.9 191.129 M2218.9 187.518 Q2224.46 187.518 2227.63 191.129 Q2230.8 194.74 2230.8 201.129 Q2230.8 207.495 2227.63 211.129 Q2224.46 214.74 2218.9 214.74 Q2213.32 214.74 2210.15 211.129 Q2207 207.495 2207 201.129 Q2207 194.74 2210.15 191.129 Q2213.32 187.518 2218.9 187.518 Z" fill="#000000" fill-rule="nonzero" fill-opacity="1" /><path clip-path="url(#clip330)" d="M2259.41 198.421 L2259.41 214.069 L2255.15 214.069 L2255.15 198.559 Q2255.15 194.879 2253.72 193.05 Q2252.28 191.222 2249.41 191.222 Q2245.96 191.222 2243.97 193.421 Q2241.98 195.62 2241.98 199.416 L2241.98 214.069 L2237.7 214.069 L2237.7 188.143 L2241.98 188.143 L2241.98 192.171 Q2243.51 189.833 2245.57 188.675 Q2247.65 187.518 2250.36 187.518 Q2254.83 187.518 2257.12 190.296 Q2259.41 193.05 2259.41 198.421 Z" fill="#000000" fill-rule="nonzero" fill-opacity="1" /></svg>
